# xmcd
#
# Track frame offsets:
#	150
#	10924
#	22964
#	35046
#	45138
#	57410
#	69457
#	81788
#	93265
#	105307
#	119111
#	131229
#	144434
#	157977
#	169714
#	181498
#	190052
#	202842
#
# Disc length: 2888 seconds
#
# Revision: 0
# Processed by: cddbd v1.5.2PL0 Copyright (c) Steve Scherf et al.
# Submitted via: dBpowerAMP V4.0
#
DISCID=e90b4612
DTITLE=Brother Cecil Shaw - I Want To Know
DYEAR=2006
DGENRE=Gospel
TTITLE0=I Know He'll Answer
TTITLE1=In Heaven I'll Rest
TTITLE2=I Want To Know
TTITLE3=Move Up
TTITLE4=Jesus, Lend Me A Helping Hand
TTITLE5=Unfair Deeds
TTITLE6=Heavens Bells Have Called Mother Home
TTITLE7=I Got Jesus In My Heart
TTITLE8=A Christian's Plea
TTITLE9=Livin' My Life For Jesus
TTITLE10=Jesus Be My Keeper
TTITLE11=Pray On My Child
TTITLE12=Jesus Gave Me Life
TTITLE13=See My Jesus By And By
TTITLE14=Jesus My Friend
TTITLE15=Walk With Me Lord
TTITLE16=Have Mercy My Father
TTITLE17=Yes God Knows
EXTD=
EXTT0=
EXTT1=
EXTT2=
EXTT3=
EXTT4=
EXTT5=
EXTT6=
EXTT7=
EXTT8=
EXTT9=
EXTT10=
EXTT11=
EXTT12=
EXTT13=
EXTT14=
EXTT15=
EXTT16=
EXTT17=
PLAYORDER=
